<svg id="bitcoin" data-name="Layer 1" xmlns="http://www.w3.org/2000/svg" viewBox="0 0 400.5 400.5"><title>bitcoinn</title><circle id="f83d8a38-0be3-4a98-8b23-c4df194f2079" data-name="Ellipse 129" cx="200.2" cy="200.2" r="200.2" style="fill:#f7931a"/><path id="a01d5237-de3b-4379-9cc6-8f2ff7d501fb" data-name="Path 4318" d="M197.7,325h0l-21.6-5.4,8.8-35.4c-6.2-1.5-11.9-3-17.3-4.5l-8.8,35.6-21.6-5.4,8.9-36-2.5-.6-3-.8h-.1l-1.8-.4-8.1-2.1-28.1-7,10.7-24.7h.7c11.8,3.1,14.7,3.8,15,3.8h.1a9.3,9.3,0,0,0,2.4.4,8,8,0,0,0,7.5-5.6L153,180.2l2.3.6-2.2-.7,10.1-40.5A11.6,11.6,0,0,0,153.1,127c0-.3-10.3-2.7-15.7-3.9l5.8-23.1,29.8,7.4v.2l11,2.6,2.8.7,8.9-35.6,21.6,5.4-8.7,34.8,1.6.4h.5l15.2,3.6L234.5,85l21.7,5.4L247.3,126c33,11.3,46.8,27.1,43.4,49.7a34.4,34.4,0,0,1-27.6,31.7c10.5,5.5,17.3,12,20.7,20s3.7,19.6-.8,32.5c-7.8,22.1-23,32.3-48.1,32.3a148.5,148.5,0,0,1-28.2-3.1l-9,35.9ZM186.6,206.1l-11.9,47.6,4.2,1.1c8.7,2.3,23.1,6.1,35.8,6.1,15,0,23.9-5.3,26.6-15.9a19.4,19.4,0,0,0-2.2-15.4c-8.3-13.6-33.6-19.2-47.2-22.3Zm16.2-65L192,184.3l3.6.9c7.3,2,18.4,5,28.8,5,13.2,0,21.1-5,23.6-14.9a18.3,18.3,0,0,0-2-14.6c-7.2-11.6-27.8-16.1-38.8-18.6Z" transform="translate(-0.5 -0.3)" style="fill:#fff"/></svg>