<svg xmlns="http://www.w3.org/2000/svg" xmlns:xlink="http://www.w3.org/1999/xlink" viewBox="0 0 177.604 45.968">
  <defs>
    <style>
      .cls-1 {
        fill: none;
      }

      .cls-2 {
        fill: #102d6f;
      }

      .cls-3 {
        clip-path: url(#clip-path);
      }

      .cls-4 {
        clip-path: url(#clip-path-2);
      }
    </style>
    <clipPath id="clip-path">
      <path id="Clip_8" data-name="Clip 8" class="cls-1" d="M0,0H51.939V44.22H0Z"/>
    </clipPath>
    <clipPath id="clip-path-2">
      <path id="Clip_31" data-name="Clip 31" class="cls-1" d="M0,45.968H177.6V0H0Z"/>
    </clipPath>
  </defs>
  <g id="Group_33" data-name="Group 33" transform="translate(0 -1)">
    <path id="Fill_1" data-name="Fill 1" class="cls-2" d="M0,1.916A19.815,19.815,0,0,1,3.872,5.052H7.627A20.676,20.676,0,0,0,2.346,0,18.573,18.573,0,0,1,0,1.916" transform="translate(31.406 7.968)"/>
    <path id="Fill_3" data-name="Fill 3" class="cls-2" d="M20.9,19.628V19.57a19.559,19.559,0,0,1-7.04-1.683h-.059l-.059-.059A18.7,18.7,0,0,1,4.067,7.375,19.9,19.9,0,0,1,2.952,2.208,9.432,9.432,0,0,1,.488.465,3.538,3.538,0,0,1,.019,0,21.376,21.376,0,0,0,1.31,8.363a21.238,21.238,0,0,0,10.97,11.962l.176.059a21.306,21.306,0,0,0,11.967,1.8A10.578,10.578,0,0,1,21.14,19.86l-.235-.233" transform="translate(0 24.576)"/>
    <path id="Fill_5" data-name="Fill 5" class="cls-2" d="M0,3.6,1.114,8.652a5.8,5.8,0,0,0,.411-.87l.059-.174A21.8,21.8,0,0,0,3.578,0,18.4,18.4,0,0,1,.587.639,17.645,17.645,0,0,1,0,3.6" transform="translate(39.561 27.015)"/>
    <g id="Group_9" data-name="Group 9" transform="translate(0.118 1)">
      <path id="Clip_8-2" data-name="Clip 8" class="cls-1" d="M0,0H51.939V44.22H0Z" transform="translate(0 0)"/>
      <g id="Group_9-2" data-name="Group 9" class="cls-3" transform="translate(0 0)">
        <path id="Fill_7" data-name="Fill 7" class="cls-2" d="M29.618,44.221a10.039,10.039,0,0,1-1.32-.088,7.835,7.835,0,0,1-2.523-.754,8.41,8.41,0,0,1-2.7-1.916,7.681,7.681,0,0,1-1.407-1.975,15.6,15.6,0,0,1-2.875-.232,16.432,16.432,0,0,1-3.637-1.161,15.141,15.141,0,0,1-6.865-6.329,15.663,15.663,0,0,1-1.876-7.782,6.471,6.471,0,0,1-1.525-.348,7.183,7.183,0,0,1-2.582-1.627A7.382,7.382,0,0,1,.137,18.06a7.005,7.005,0,0,1,.587-4.47l.293-.524.587-1.1,1.173.524,16.9,7.78a14.526,14.526,0,0,1,4.459,3.02,8.569,8.569,0,0,1,2.229,4.181l1.76,8.072a8.408,8.408,0,0,1,2.171.87,6.085,6.085,0,0,1,1.819,1.569l-2.054,1.567A2.665,2.665,0,0,0,29,38.675a7.1,7.1,0,0,0-2.231-.755l-.821-.174-.175-.813-1.642-7.606a9.124,9.124,0,0,1-1.115.464,5.547,5.547,0,0,1-1.392.177,5.362,5.362,0,0,1-2.071-.409l-.292-.117A5.247,5.247,0,0,1,16.5,26.481a4.984,4.984,0,0,1,.118-3.891l.058-.173a2.319,2.319,0,0,1,.286-.512l.008-.011-14.138-6.5a4.238,4.238,0,0,0-.118,2.265,4.833,4.833,0,0,0,1.409,2.613A4.925,4.925,0,0,0,5.77,21.312a4.8,4.8,0,0,0,.879.231h.058c.029-.172.1-.434.174-.688s.149-.529.178-.705l1.407.64.88.406-.117.407a11.712,11.712,0,0,0-.293,4.3A13.316,13.316,0,0,0,10.4,30.6a12.441,12.441,0,0,0,5.689,5.285,11.807,11.807,0,0,0,2.992.93,14.581,14.581,0,0,0,2.349.2c.256,0,.512-.007.76-.022l.94-.058.353.872a5.471,5.471,0,0,0,1.29,1.973,5.877,5.877,0,0,0,1.935,1.393,5.046,5.046,0,0,0,1.82.524,14.508,14.508,0,0,0,1.584.058l5.573-3.833-2.111-9.813-.059-.232a11.935,11.935,0,0,0,.411-3.079,12.237,12.237,0,0,0-7.217-11.323c-.332-.165-.616-.279-.891-.388l-.046-.018a5,5,0,0,0-1-.29,6.287,6.287,0,0,0-1-.232h-.117a7.555,7.555,0,0,1-3.345,3.02,7.283,7.283,0,0,1-3.031.659,7.646,7.646,0,0,1-1.427-.136,21.5,21.5,0,0,1-3.755-1.335,20.968,20.968,0,0,1-3.226-1.627,7.183,7.183,0,0,1-2.64-4.065,7.611,7.611,0,0,1,.469-4.82A7.768,7.768,0,0,1,9.231,1.278,7.438,7.438,0,0,1,12.927,0h.118l20,.058h2.23L34.107,1.974a15.009,15.009,0,0,1-5.515,5.459,14.8,14.8,0,0,1-7.451,1.974h-7.92l.059-2.614H21.2a12.368,12.368,0,0,0,6.159-1.626,13.755,13.755,0,0,0,3.227-2.612H13.1a4.52,4.52,0,0,0-2.288.812A4.815,4.815,0,0,0,9.172,5.285,4.933,4.933,0,0,0,8.82,8.42a5.035,5.035,0,0,0,1.7,2.671,28.829,28.829,0,0,0,2.64,1.278,18.832,18.832,0,0,0,3.226,1.161,5.292,5.292,0,0,0,.909.079,4.845,4.845,0,0,0,2.023-.426,4.481,4.481,0,0,0,2.112-1.917l.352-.7.411-.812.94.116c.2.028.378.055.56.083s.4.061.613.09a6.98,6.98,0,0,1,1.175.291c.211.06.41.12.6.179s.371.113.57.17c.156.067.3.124.448.18.231.09.449.176.666.283a15.327,15.327,0,0,1,4.928,3.6H51.94l-1.173,1.916a15.179,15.179,0,0,1-4.811,4.993,14.179,14.179,0,0,1-6.513,2.323h-.116l-.117-2.5h.117a12.252,12.252,0,0,0,5.339-1.916,13.585,13.585,0,0,0,2.58-2.265H34.633c.029.055.072.126.114.194s.092.151.123.211a14.939,14.939,0,0,1,1.525,9.407l-.117.7,2.23,10.278.175.813-.7.465L31.467,43.9l-.234.173-.294.058A10.039,10.039,0,0,1,29.618,44.221ZM19.263,23c-.034.05-.068.1-.1.139a1.154,1.154,0,0,0-.194.326,2.608,2.608,0,0,0-.116,2.09,2.82,2.82,0,0,0,1.407,1.568,2.913,2.913,0,0,0,1.2.272,2.4,2.4,0,0,0,.682-.1,3,3,0,0,0,1.056-.522,4.236,4.236,0,0,0-1.056-1.684A10.39,10.39,0,0,0,19.263,23Z" transform="translate(-0.002 0)"/>
      </g>
    </g>
    <path id="Fill_10" data-name="Fill 10" class="cls-2" d="M9.034,7.433a6.912,6.912,0,0,0-1.643-.7c-.587-.174-1.115-.348-1.642-.523a3.748,3.748,0,0,1-1.291-.58A1.169,1.169,0,0,1,3.93,4.588a1.244,1.244,0,0,1,.235-.7,1.379,1.379,0,0,1,.529-.464,1.8,1.8,0,0,1,.7-.29,3.666,3.666,0,0,1,.763-.058,3.571,3.571,0,0,1,1.29.233,2.528,2.528,0,0,1,1.115.755l2.17-2.5A5.152,5.152,0,0,0,8.624.349,9.013,9.013,0,0,0,6.16,0,8.835,8.835,0,0,0,4.048.29a5.965,5.965,0,0,0-1.819.929A4.555,4.555,0,0,0,.938,2.729,4.605,4.605,0,0,0,.47,4.82,3.419,3.419,0,0,0,1,6.795a3.665,3.665,0,0,0,1.29,1.219,6.308,6.308,0,0,0,1.7.756c.587.174,1.173.349,1.7.523a5.316,5.316,0,0,1,1.29.638,1.17,1.17,0,0,1,.529,1.046,1.235,1.235,0,0,1-.176.7,1.389,1.389,0,0,1-.529.465,2.94,2.94,0,0,1-.762.289,4,4,0,0,1-.821.117,3.91,3.91,0,0,1-1.585-.349,3.228,3.228,0,0,1-1.29-1.044L0,13.7a6.752,6.752,0,0,0,2.346,1.451,7.959,7.959,0,0,0,2.7.465,9.345,9.345,0,0,0,2.229-.29A6.679,6.679,0,0,0,9.093,14.4a3.6,3.6,0,0,0,1.291-1.511,4.829,4.829,0,0,0,.47-2.147,3.522,3.522,0,0,0-1.82-3.311" transform="translate(58.1 16.039)"/>
    <path id="Fill_12" data-name="Fill 12" class="cls-2" d="M3.168,15.271H0V.348H3.052V1.683h.057a3.557,3.557,0,0,1,.231-.289c.077-.091.157-.184.238-.291a3.5,3.5,0,0,1,.458-.35C4.12.7,4.205.637,4.283.58a6.13,6.13,0,0,1,.87-.4l.009,0A3.143,3.143,0,0,1,6.218,0,4.55,4.55,0,0,1,8.273.407a3.839,3.839,0,0,1,1.584,1.1,5.486,5.486,0,0,1,1.056,1.684,6.035,6.035,0,0,1,.353,2.091,5.931,5.931,0,0,1-.353,2.031,6.261,6.261,0,0,1-.939,1.742,4.249,4.249,0,0,1-1.466,1.219,4.38,4.38,0,0,1-2,.465,6.581,6.581,0,0,1-1.877-.29A2.523,2.523,0,0,1,3.227,9.406H3.168V15.27ZM5.515,2.9a2.5,2.5,0,0,0-1.878.7,2.76,2.76,0,0,0-.644,1.859,2.755,2.755,0,0,0,.644,1.858,2.5,2.5,0,0,0,1.878.7,2.5,2.5,0,0,0,1.877-.7,2.479,2.479,0,0,0,.645-1.858A2.756,2.756,0,0,0,7.392,3.6,2.5,2.5,0,0,0,5.515,2.9Z" transform="translate(70.713 20.803)"/>
    <path id="Fill_14" data-name="Fill 14" class="cls-2" d="M5.749,10.8a5.834,5.834,0,0,1-2.23-.407A5.172,5.172,0,0,1,1.7,9.291,4.982,4.982,0,0,1,.47,7.607a5.415,5.415,0,0,1,0-4.412A4.968,4.968,0,0,1,1.7,1.51,6.24,6.24,0,0,1,3.52.408,7.1,7.1,0,0,1,5.749,0,4.338,4.338,0,0,1,7.744.408a4.044,4.044,0,0,1,1.526,1.1,4.247,4.247,0,0,1,.939,1.684A6.392,6.392,0,0,1,10.56,5.4v.989H3.168A2.562,2.562,0,0,0,3.99,7.84a2.377,2.377,0,0,0,1.584.522,2.6,2.6,0,0,0,1.35-.348,3.3,3.3,0,0,0,.939-.872l2.229,1.626a5.419,5.419,0,0,1-1.936,1.51A5.743,5.743,0,0,1,5.749,10.8Zm-.292-8.42a2.5,2.5,0,0,0-.939.173,2.772,2.772,0,0,0-.7.408,4.123,4.123,0,0,0-.47.581,1.536,1.536,0,0,0-.176.7H7.382a1.815,1.815,0,0,0-.518-1.277A1.744,1.744,0,0,0,5.457,2.381Z" transform="translate(83.149 20.802)"/>
    <path id="Fill_16" data-name="Fill 16" class="cls-2" d="M5.749,2.9a1.744,1.744,0,0,1,.938.233,2.091,2.091,0,0,1,.646.58L9.444,1.336A4.577,4.577,0,0,0,7.685.289,8.288,8.288,0,0,0,5.749,0a7.2,7.2,0,0,0-2.23.406A6.35,6.35,0,0,0,1.7,1.509,5.043,5.043,0,0,0,.469,3.194a5.429,5.429,0,0,0,0,4.413A5.039,5.039,0,0,0,1.7,9.291a5.279,5.279,0,0,0,1.819,1.1,5.837,5.837,0,0,0,2.23.407,7.475,7.475,0,0,0,1.935-.29,3.409,3.409,0,0,0,1.76-1.046L7.333,7.259a6.339,6.339,0,0,1-.646.523,1.743,1.743,0,0,1-.938.231,2.488,2.488,0,0,1-1.878-.7,2.752,2.752,0,0,1-.647-1.859A2.489,2.489,0,0,1,3.872,3.6a2.489,2.489,0,0,1,1.878-.7" transform="translate(94.942 20.744)"/>
    <path id="Fill_18" data-name="Fill 18" class="cls-2" d="M5.221,0H2.052V3.019H0v2.5H2.052v4.82a3.558,3.558,0,0,0,.294,1.452,3.167,3.167,0,0,0,.821.929,3.61,3.61,0,0,0,1.173.522,5.658,5.658,0,0,0,1.467.175,7.427,7.427,0,0,0,1.114-.059,3.472,3.472,0,0,0,1.115-.231V10.51a1.628,1.628,0,0,1-.646.233,2.669,2.669,0,0,1-.646.058,1.651,1.651,0,0,1-.82-.115,1.083,1.083,0,0,1-.47-.407A1.687,1.687,0,0,1,5.28,9.7a3.015,3.015,0,0,1-.059-.755V5.516H8.037v-2.5H5.221Z" transform="translate(104.858 18.131)"/>
    <path id="Fill_20" data-name="Fill 20" class="cls-2" d="M6.16,0A3.281,3.281,0,0,0,4.4.465,3.654,3.654,0,0,0,3.169,1.859H3.11V.233H0V10.395H3.169V6.156a10.351,10.351,0,0,1,.058-1.395,2.717,2.717,0,0,1,.353-1.1,1.941,1.941,0,0,1,.821-.7,3.527,3.527,0,0,1,1.466-.233,2.845,2.845,0,0,1,.7.059c.176.058.411.116.646.174V.058C7.04.058,6.865,0,6.689,0Z" transform="translate(114.653 20.918)"/>
    <path id="Fill_22" data-name="Fill 22" class="cls-2" d="M5.749,10.8a5.818,5.818,0,0,1-2.23-.407A5.183,5.183,0,0,1,1.7,9.289,4.968,4.968,0,0,1,.47,7.606,4.663,4.663,0,0,1,0,5.4,5.321,5.321,0,0,1,.47,3.193,4.976,4.976,0,0,1,1.7,1.509,6.221,6.221,0,0,1,3.52.407,7.1,7.1,0,0,1,5.749,0a5.8,5.8,0,0,1,2.23.407A5.182,5.182,0,0,1,9.8,1.509a4.958,4.958,0,0,1,1.231,1.684,5.415,5.415,0,0,1,0,4.412A4.95,4.95,0,0,1,9.8,9.289a6.269,6.269,0,0,1-1.819,1.1A7.122,7.122,0,0,1,5.749,10.8ZM5.691,2.845a2.5,2.5,0,0,0-1.877.7A2.747,2.747,0,0,0,3.168,5.4a2.751,2.751,0,0,0,.646,1.858,2.5,2.5,0,0,0,1.877.7,2.5,2.5,0,0,0,1.878-.7A2.485,2.485,0,0,0,8.214,5.4a2.751,2.751,0,0,0-.644-1.858A2.5,2.5,0,0,0,5.691,2.845Z" transform="translate(122.573 20.86)"/>
    <path id="Fill_24" data-name="Fill 24" class="cls-2" d="M9.446,12.079a3.643,3.643,0,0,1-1.82.406,3.963,3.963,0,0,1-1.642-.347,4.465,4.465,0,0,1-1.349-.987,5.391,5.391,0,0,1-.88-1.51A5.068,5.068,0,0,1,3.4,7.724a5.068,5.068,0,0,1,.353-1.916A4.41,4.41,0,0,1,4.693,4.3a3.848,3.848,0,0,1,1.349-.987,4.049,4.049,0,0,1,1.7-.348,3.609,3.609,0,0,1,1.643.289,3.594,3.594,0,0,1,1.173.929L13.2,2.207a6.217,6.217,0,0,0-1.114-1.045,5.59,5.59,0,0,0-1.291-.7A5.081,5.081,0,0,0,9.446.117,11.638,11.638,0,0,0,8.1,0,9.624,9.624,0,0,0,4.87.523,6.83,6.83,0,0,0,2.288,2.091a6.127,6.127,0,0,0-1.7,2.44A8.438,8.438,0,0,0,0,7.783a8.252,8.252,0,0,0,.587,3.252,7.982,7.982,0,0,0,1.7,2.438A7.3,7.3,0,0,0,4.87,15.04a9.6,9.6,0,0,0,3.225.523,7.924,7.924,0,0,0,2.993-.639,6.543,6.543,0,0,0,2.405-1.974l-2.758-2.032a4.1,4.1,0,0,1-1.29,1.161" transform="translate(135.188 16.156)"/>
    <path id="Fill_26" data-name="Fill 26" class="cls-2" d="M5.749,10.8a5.818,5.818,0,0,1-2.23-.407A5.184,5.184,0,0,1,1.7,9.289,4.978,4.978,0,0,1,.47,7.606,4.663,4.663,0,0,1,0,5.4,5.321,5.321,0,0,1,.47,3.193,4.985,4.985,0,0,1,1.7,1.509,6.224,6.224,0,0,1,3.52.407,7.1,7.1,0,0,1,5.749,0a5.8,5.8,0,0,1,2.23.407A5.167,5.167,0,0,1,9.8,1.509a4.959,4.959,0,0,1,1.232,1.684,5.415,5.415,0,0,1,0,4.412A4.951,4.951,0,0,1,9.8,9.289a6.249,6.249,0,0,1-1.818,1.1A7.134,7.134,0,0,1,5.749,10.8ZM5.69,2.845a2.491,2.491,0,0,0-1.876.7A2.747,2.747,0,0,0,3.168,5.4a2.751,2.751,0,0,0,.646,1.858,2.494,2.494,0,0,0,1.876.7,2.5,2.5,0,0,0,1.878-.7A2.482,2.482,0,0,0,8.214,5.4a2.747,2.747,0,0,0-.645-1.858A2.5,2.5,0,0,0,5.69,2.845Z" transform="translate(149.209 20.86)"/>
    <path id="Fill_28" data-name="Fill 28" class="cls-2" d="M1.82,0A1.825,1.825,0,0,0,.529.523,1.7,1.7,0,0,0,0,1.8,1.793,1.793,0,0,0,.529,3.078,1.733,1.733,0,0,0,1.82,3.6a1.827,1.827,0,0,0,1.29-.522,1.808,1.808,0,0,0,0-2.555A1.727,1.727,0,0,0,1.82,0" transform="translate(161.998 16.156)"/>
    <path id="Clip_31-2" data-name="Clip 31" class="cls-1" d="M0,45.968H177.6V0H0Z" transform="translate(0 1)"/>
    <g id="Group_876" data-name="Group 876" class="cls-4" transform="translate(0 1)">
      <path id="Fill_30" data-name="Fill 30" class="cls-2" d="M0,10.221H3.169V0H0Z" transform="translate(162.292 20.15)"/>
      <path id="Fill_32" data-name="Fill 32" class="cls-2" d="M9.152,1.393A2.9,2.9,0,0,0,7.978.348,4.419,4.419,0,0,0,6.042,0,3.358,3.358,0,0,0,4.987.174a3.08,3.08,0,0,0-.88.407,6.19,6.19,0,0,0-.646.522,3.507,3.507,0,0,0-.411.581H2.992V.29H0V10.453H3.167V5.4a5.239,5.239,0,0,1,.059-.988A3.376,3.376,0,0,1,3.519,3.6a1.863,1.863,0,0,1,.588-.58,1.7,1.7,0,0,1,1-.233,1.5,1.5,0,0,1,.938.233,1.825,1.825,0,0,1,.47.639,2.319,2.319,0,0,1,.176.87,5.246,5.246,0,0,1,.059.929v4.995H9.915V4.819A9.646,9.646,0,0,0,9.738,2.9a3.871,3.871,0,0,0-.587-1.509" transform="translate(167.689 19.86)"/>
    </g>
  </g>
</svg>
