<svg id="nem" data-name="Layer 1" xmlns="http://www.w3.org/2000/svg" viewBox="0 0 400.5 400.5"><title>nem</title><circle id="e485d297-3f3a-4d39-ae38-d13613873b49" data-name="Ellipse 128" cx="200.2" cy="200.2" r="200.2" style="fill:#00c4b4"/><path id="a68c219a-5ec4-4f62-8daf-3d90cb173fc0" data-name="Path 4314" d="M77.2,149.6a280.2,280.2,0,0,1-1.8-28.9A253.2,253.2,0,0,1,205.7,87.6c7.1.2,17.4,1,25.2,1.8a75.5,75.5,0,0,0-38.3,52.5,72.3,72.3,0,0,0-1.3,12.3,68.7,68.7,0,0,1-2.2,16.9,56.7,56.7,0,0,1-106,8.4,16.3,16.3,0,0,1-1.3-3.7A256.3,256.3,0,0,1,77.2,149.6Z" transform="translate(-0.3 -0.1)" style="fill:#fff"/><path id="56753794-b974-4917-b51b-f4fbc115b3c1" data-name="Path 4315" d="M285.1,256.8c-2.9,4.6-6.1,9.1-9.4,13.5a75,75,0,0,0-36-64.4l-1.1-.7-1.8-1.1a55.6,55.6,0,0,1-26-38.1,56.6,56.6,0,0,1,42.3-65.3,55.5,55.5,0,0,1,30.5,1.1,194.8,194.8,0,0,1,25.2,10.1c5.5,2.5,11,5.5,17,8.8,0,6.7-.4,13.6-1,20.8a252.4,252.4,0,0,1-39.7,115.3Z" transform="translate(-0.3 -0.1)" style="fill:#fff"/><path id="b3e8bdc0-a001-4e97-8fab-0a872425e7be" data-name="Path 4316" d="M247.1,302.7a252.8,252.8,0,0,1-46.5,35.2c-2.6-1.4-7.6-4.5-12.8-8A253.9,253.9,0,0,1,114.9,255a249.1,249.1,0,0,1-18.2-34.2,74.1,74.1,0,0,0,30.3,9.8,75.2,75.2,0,0,0,45.2-9.7,59.6,59.6,0,0,1,21.3-7.1,56.6,56.6,0,0,1,61.4,40.1,55.6,55.6,0,0,1-3.6,41.4c-.5,1.1-1,2.1-2.2,4.3l-.5,1.1A7.5,7.5,0,0,1,247.1,302.7Z" transform="translate(-0.3 -0.1)" style="fill:#fff"/></svg>